<?xml version="1.0" encoding="utf-8"?>
<!-- Uploaded to: SVG Repo, www.svgrepo.com, Generator: SVG Repo Mixer Tools -->
<svg width="800px" height="800px" viewBox="0 -2 64 64" xmlns="http://www.w3.org/2000/svg">
  <g id="newspaper" transform="translate(0 -126)">
    <path id="Path_158" data-name="Path 158" d="M60,182l2-54H18v54" fill="#1b8cff" opacity="0.3"/>
    <line id="Line_301" data-name="Line 301" x2="44" transform="translate(18 178)" fill="none" stroke="#ffffff" stroke-miterlimit="10" stroke-width="2" opacity="0.5"/>
    <line id="Line_302" data-name="Line 302" x2="44" transform="translate(18 174)" fill="none" stroke="#ffffff" stroke-miterlimit="10" stroke-width="2" opacity="0.5"/>
    <path id="Path_159" data-name="Path 159" d="M62,175V128H18v47" fill="none" stroke="#1b8cff" stroke-linecap="round" stroke-linejoin="round" stroke-width="4"/>
    <line id="Line_303" data-name="Line 303" x2="42" transform="translate(11 184)" fill="none" stroke="#1b8cff" stroke-linecap="round" stroke-linejoin="round" stroke-width="4"/>
    <path id="Path_160" data-name="Path 160" d="M18,175v1a8,8,0,0,1-16,0V156H18" fill="none" stroke="#1b8cff" stroke-linecap="round" stroke-linejoin="round" stroke-width="4"/>
    <path id="Path_161" data-name="Path 161" d="M62,175a9,9,0,0,1-9,9" fill="none" stroke="#1b8cff" stroke-linecap="round" stroke-linejoin="round" stroke-width="4"/>
    <line id="Line_304" data-name="Line 304" x2="42" transform="translate(20 133)" fill="none" stroke="#1b8cff" stroke-linecap="round" stroke-linejoin="round" stroke-width="2"/>
    <line id="Line_305" data-name="Line 305" x2="16" transform="translate(2 161)" fill="none" stroke="#1b8cff" stroke-linecap="round" stroke-linejoin="round" stroke-width="2"/>
    <line id="Line_306" data-name="Line 306" x1="26" transform="translate(25 151)" fill="none" stroke="#1b8cff" stroke-linecap="round" stroke-linejoin="round" stroke-width="2"/>
    <line id="Line_307" data-name="Line 307" x1="24" transform="translate(25 155)" fill="none" stroke="#1b8cff" stroke-linecap="round" stroke-linejoin="round" stroke-width="2"/>
    <line id="Line_308" data-name="Line 308" x1="30" transform="translate(25 143)" fill="none" stroke="#1b8cff" stroke-linecap="round" stroke-linejoin="round" stroke-width="2"/>
    <line id="Line_309" data-name="Line 309" x1="28" transform="translate(25 147)" fill="none" stroke="#1b8cff" stroke-linecap="round" stroke-linejoin="round" stroke-width="2"/>
  </g>
</svg>