<svg width="24" height="24" viewBox="0 0 24 24" fill="none" xmlns="http://www.w3.org/2000/svg">
<g clip-path="url(#clip0_75_8380)">
<path d="M20.4 0H3.6C1.61177 0 0 1.61177 0 3.6V20.4C0 22.3882 1.61177 24 3.6 24H20.4C22.3882 24 24 22.3882 24 20.4V3.6C24 1.61177 22.3882 0 20.4 0Z" fill="#7289DA"/>
<path d="M16.2188 18.375L15.2344 17.2031C17.1562 16.6875 17.9062 15.375 17.9062 15.375C15.4688 17.6719 8.8125 17.7656 6.23438 15.375C6.23438 15.375 6.89062 16.5938 8.85938 17.2031L7.78125 18.375C4.5 18.3281 3.23438 16.125 3.23438 16.125C3.23438 11.25 5.39062 7.35938 5.39062 7.35938C7.59375 5.8125 9.60938 5.8125 9.60938 5.8125L9.75 6C7.03125 6.75 5.85938 7.96875 5.85938 7.96875C9.04688 5.8125 15.6094 6 18.1875 7.96875C18.2344 7.92188 16.6406 6.65625 14.1562 6L14.3906 5.8125C14.3906 5.8125 16.4062 5.8125 18.6094 7.35938C18.6094 7.35938 20.7656 11.25 20.7656 16.125C20.7656 16.125 19.5 18.3281 16.2188 18.375Z" fill="white"/>
<path d="M9.1875 14.7188C10.0418 14.7188 10.7344 13.9842 10.7344 13.0781C10.7344 12.172 10.0418 11.4375 9.1875 11.4375C8.33318 11.4375 7.64062 12.172 7.64062 13.0781C7.64062 13.9842 8.33318 14.7188 9.1875 14.7188Z" fill="#7289DA"/>
<path d="M14.625 14.7188C15.4793 14.7188 16.1719 13.9842 16.1719 13.0781C16.1719 12.172 15.4793 11.4375 14.625 11.4375C13.7707 11.4375 13.0781 12.172 13.0781 13.0781C13.0781 13.9842 13.7707 14.7188 14.625 14.7188Z" fill="#7289DA"/>
</g>
<defs>
<clipPath id="clip0_75_8380">
<rect width="24" height="24" fill="white"/>
</clipPath>
</defs>
</svg>
