<svg width="24" height="24" viewBox="0 0 24 24" fill="none" xmlns="http://www.w3.org/2000/svg">
<g clip-path="url(#clip0_75_8384)">
<path d="M19.8 0H4.2C1.8804 0 0 1.8804 0 4.2V19.8C0 22.1196 1.8804 24 4.2 24H19.8C22.1196 24 24 22.1196 24 19.8V4.2C24 1.8804 22.1196 0 19.8 0Z" fill="#385997"/>
<path d="M20.3996 11.0996H16.6496V8.24961C16.6496 7.55211 17.4521 7.49961 17.6996 7.49961H20.2496V3.59961H17.6996C14.8759 3.59961 12.7496 5.59836 12.7496 8.24961V11.0996H9.59961V14.9996H12.7496V23.9996H16.6496V14.9996H19.7996L20.3996 11.0996Z" fill="white"/>
</g>
<defs>
<clipPath id="clip0_75_8384">
<rect width="24" height="24" fill="white"/>
</clipPath>
</defs>
</svg>
