<svg width="24" height="24" viewBox="0 0 24 24" fill="none" xmlns="http://www.w3.org/2000/svg">
<g clip-path="url(#clip0_75_8379)">
<path d="M4.2 24L19.8 24C22.1196 24 24 22.1196 24 19.8L24 4.2C24 1.8804 22.1196 0 19.8 0L4.2 0C1.8804 0 0 1.8804 0 4.2L0 19.8C0 22.1196 1.8804 24 4.2 24Z" fill="url(#paint0_radial_75_8379)"/>
<path d="M16.5 21H7.5C6.30653 21 5.16193 20.5259 4.31802 19.682C3.47411 18.8381 3 17.6935 3 16.5V7.5C3 6.30653 3.47411 5.16193 4.31802 4.31802C5.16193 3.47411 6.30653 3 7.5 3H16.5C17.6935 3 18.8381 3.47411 19.682 4.31802C20.5259 5.16193 21 6.30653 21 7.5V16.5C21 17.6935 20.5259 18.8381 19.682 19.682C18.8381 20.5259 17.6935 21 16.5 21ZM7.5 4.8C6.78422 4.80099 6.09804 5.08577 5.59191 5.59191C5.08577 6.09804 4.80099 6.78422 4.8 7.5V16.5C4.80099 17.2158 5.08577 17.902 5.59191 18.4081C6.09804 18.9142 6.78422 19.199 7.5 19.2H16.5C17.2158 19.199 17.902 18.9142 18.4081 18.4081C18.9142 17.902 19.199 17.2158 19.2 16.5V7.5C19.199 6.78422 18.9142 6.09804 18.4081 5.59191C17.902 5.08577 17.2158 4.80099 16.5 4.8H7.5Z" fill="white"/>
<path d="M12.0004 17.1004C10.9917 17.1004 10.0057 16.8013 9.16698 16.2409C8.32829 15.6805 7.67461 14.884 7.28861 13.9521C6.9026 13.0202 6.8016 11.9947 6.99839 11.0054C7.19517 10.0161 7.6809 9.1074 8.39415 8.39415C9.1074 7.6809 10.0161 7.19517 11.0054 6.99839C11.9947 6.8016 13.0202 6.9026 13.9521 7.28861C14.884 7.67461 15.6805 8.32829 16.2409 9.16698C16.8013 10.0057 17.1004 10.9917 17.1004 12.0004C17.0994 13.3527 16.5618 14.6493 15.6055 15.6055C14.6493 16.5618 13.3527 17.0994 12.0004 17.1004ZM12.0004 8.70039C11.3477 8.70039 10.7097 8.89393 10.167 9.25654C9.62433 9.61915 9.20136 10.1345 8.95159 10.7375C8.70182 11.3405 8.63647 12.0041 8.7638 12.6442C8.89113 13.2843 9.20543 13.8723 9.66694 14.3338C10.1285 14.7954 10.7165 15.1097 11.3566 15.237C11.9967 15.3643 12.6603 15.299 13.2632 15.0492C13.8662 14.7994 14.3816 14.3765 14.7442 13.8338C15.1069 13.2911 15.3004 12.6531 15.3004 12.0004C15.2994 11.1255 14.9514 10.2867 14.3327 9.66804C13.7141 9.04938 12.8753 8.70139 12.0004 8.70039Z" fill="white"/>
<path d="M17.1 8.09981C17.5971 8.09981 18 7.69686 18 7.19981C18 6.70275 17.5971 6.2998 17.1 6.2998C16.603 6.2998 16.2 6.70275 16.2 7.19981C16.2 7.69686 16.603 8.09981 17.1 8.09981Z" fill="white"/>
</g>
<defs>
<radialGradient id="paint0_radial_75_8379" cx="0" cy="0" r="1" gradientUnits="userSpaceOnUse" gradientTransform="translate(-0.482811 23.5125) rotate(180) scale(55.4231)">
<stop stop-color="#F9ED32"/>
<stop offset="0.36" stop-color="#EE2A7B"/>
<stop offset="0.44" stop-color="#D22A8A"/>
<stop offset="0.6" stop-color="#8B2AB2"/>
<stop offset="0.83" stop-color="#1B2AF0"/>
<stop offset="0.88" stop-color="#002AFF"/>
</radialGradient>
<clipPath id="clip0_75_8379">
<rect width="24" height="24" fill="white"/>
</clipPath>
</defs>
</svg>
