<svg width="24" height="24" viewBox="0 0 24 24" fill="none" xmlns="http://www.w3.org/2000/svg">
<g clip-path="url(#clip0_75_8376)">
<path d="M19.8 0H4.2C1.8804 0 0 1.8804 0 4.2V19.8C0 22.1196 1.8804 24 4.2 24H19.8C22.1196 24 24 22.1196 24 19.8V4.2C24 1.8804 22.1196 0 19.8 0Z" fill="#007FB5"/>
<path d="M6.75734 8.82715H3.37109V21.0971H6.75734V8.82715Z" fill="white"/>
<path d="M18.0746 8.82737C15.5771 7.87487 13.7696 9.48737 12.9971 10.3874V8.82737H9.62207V21.0974H12.9971V14.6249C12.9779 13.8045 13.2776 13.0087 13.8333 12.4049C13.9919 12.2182 14.1874 12.0662 14.4074 11.9584C14.6274 11.8507 14.8673 11.7895 15.1121 11.7786C15.3858 11.7734 15.6578 11.8235 15.9117 11.9259C16.1656 12.0284 16.3962 12.1811 16.5896 12.3749C17.009 12.8132 17.2381 13.3995 17.2271 14.0061V21.0974H21.0371V13.4999C21.0371 13.4999 21.4608 10.0949 18.0746 8.82737Z" fill="white"/>
<path d="M5.06251 7.13234C6.23059 7.13234 7.17751 6.18543 7.17751 5.01734C7.17751 3.84926 6.23059 2.90234 5.06251 2.90234C3.89443 2.90234 2.94751 3.84926 2.94751 5.01734C2.94751 6.18543 3.89443 7.13234 5.06251 7.13234Z" fill="white"/>
</g>
<defs>
<clipPath id="clip0_75_8376">
<rect width="24" height="24" fill="white"/>
</clipPath>
</defs>
</svg>
