<svg width="24" height="24" viewBox="0 0 24 24" fill="none" xmlns="http://www.w3.org/2000/svg">
<g clip-path="url(#clip0_500_3138)">
<path d="M4.2 24L19.8 24C22.1196 24 24 22.1196 24 19.8L24 4.2C24 1.8804 22.1196 0 19.8 0L4.2 0C1.8804 0 0 1.8804 0 4.2L0 19.8C0 22.1196 1.8804 24 4.2 24Z" fill="#00AADE"/>
<path d="M17.7 7.80002C18.058 7.61597 18.3753 7.36175 18.633 7.05251C18.8907 6.74327 19.0835 6.38534 19.2 6.00002C18.6 6.60002 17.325 6.79877 17.325 6.79877C16.8841 6.25705 16.2681 5.88613 15.5831 5.74996C14.898 5.61379 14.187 5.72089 13.5724 6.05282C12.9579 6.38474 12.4785 6.92067 12.2168 7.56821C11.955 8.21575 11.9274 8.93432 12.1387 9.60002H12C10.778 9.51898 9.58638 9.18358 8.50151 8.61532C7.41664 8.04705 6.46242 7.25844 5.7 6.30002C5.7 6.30002 3.9 8.70002 6.6 10.5C6.6 10.5 5.4 10.5 5.1 10.2C5.1 10.2 4.8 12 7.5 13.2C7.31161 13.2858 7.10701 13.3302 6.9 13.3302C6.69299 13.3302 6.48839 13.2858 6.3 13.2C6.3 14.3588 7.5075 15.3 9 15.3C9 16.1288 6.98625 16.8 4.5 16.8C8.4 19.5 17.7 18.9 18.3 8.70002L19.8 7.20002L17.7 7.80002Z" fill="white"/>
</g>
<defs>
<clipPath id="clip0_500_3138">
<rect width="24" height="24" fill="white"/>
</clipPath>
</defs>
</svg>
