<svg width="24" height="24" viewBox="0 0 24 24" fill="none" xmlns="http://www.w3.org/2000/svg">
<g clip-path="url(#clip0_75_8382)">
<path d="M20.4 0H3.6C1.61177 0 0 1.61177 0 3.6V20.4C0 22.3882 1.61177 24 3.6 24H20.4C22.3882 24 24 22.3882 24 20.4V3.6C24 1.61177 22.3882 0 20.4 0Z" fill="#30C3DD"/>
<g clip-path="url(#clip1_75_8382)">
<path d="M23.8125 3.88574V22.3639C23.8125 23.1607 23.1656 23.8123 22.3688 23.8123H1.63125C0.834375 23.8123 0.1875 23.1654 0.1875 22.3639V3.88574H23.8125Z" fill="white"/>
<path d="M23.8125 3.88574V22.3639C23.8125 23.1607 23.1656 23.8123 22.3688 23.8123H21.0281C21.825 23.8123 22.4766 23.1654 22.4766 22.3639V3.88574H23.8125Z" fill="#EDEDED"/>
<path d="M23.8125 3.88616V1.63616C23.8125 0.839283 23.1656 0.192408 22.3688 0.192408H1.63594C0.834375 0.187721 0.1875 0.834596 0.1875 1.63616V3.88616H23.8125Z" fill="#D3D9D9"/>
<path d="M2.97656 0.1875C2.17969 0.1875 1.52812 0.834375 1.52812 1.63125V3.88594H0.1875V1.63125C0.1875 0.834375 0.834375 0.1875 1.63125 0.1875H2.97656Z" fill="#EDEDED"/>
<path d="M23.8125 1.63125V3.88594H22.4719V1.63125C22.4719 0.834375 21.825 0.1875 21.0234 0.1875H22.3688C23.1656 0.1875 23.8125 0.834375 23.8125 1.63125Z" fill="#A8B2B4"/>
<path d="M24 1.63125C24 0.73125 23.2688 0 22.3688 0H1.63594C0.73125 0 0 0.73125 0 1.63125V22.3641C0 23.2641 0.73125 24 1.63125 24H22.3641C23.2641 24 23.9953 23.2688 23.9953 22.3641L24 1.63125ZM0.375 1.63125C0.375 0.9375 0.942188 0.375 1.63594 0.375H22.3688C23.0625 0.375 23.625 0.9375 23.625 1.63125V3.69375H0.375V1.63125ZM23.625 22.3641C23.625 23.0578 23.0625 23.625 22.3688 23.625H1.63125C0.9375 23.625 0.375 23.0578 0.375 22.3641V4.07344H23.625V22.3641Z" fill="#333333"/>
<path d="M2.37189 2.69531C2.73432 2.69531 3.02814 2.4015 3.02814 2.03906C3.02814 1.67663 2.73432 1.38281 2.37189 1.38281C2.00945 1.38281 1.71564 1.67663 1.71564 2.03906C1.71564 2.4015 2.00945 2.69531 2.37189 2.69531Z" fill="#FC8A8A"/>
<path d="M4.71094 2.69531C5.07337 2.69531 5.36719 2.4015 5.36719 2.03906C5.36719 1.67663 5.07337 1.38281 4.71094 1.38281C4.3485 1.38281 4.05469 1.67663 4.05469 2.03906C4.05469 2.4015 4.3485 2.69531 4.71094 2.69531Z" fill="#FEDD8E"/>
<path d="M7.04572 2.69531C7.40815 2.69531 7.70197 2.4015 7.70197 2.03906C7.70197 1.67663 7.40815 1.38281 7.04572 1.38281C6.68328 1.38281 6.38947 1.67663 6.38947 2.03906C6.38947 2.4015 6.68328 2.69531 7.04572 2.69531Z" fill="#7BDE9E"/>
<path d="M3.02775 2.03457C3.02775 2.4002 2.73243 2.69082 2.3715 2.69082C2.09025 2.69082 1.8465 2.5127 1.75275 2.25488C1.82306 2.27832 1.89806 2.29238 1.97775 2.29238C2.33868 2.29238 2.634 2.00176 2.634 1.63613C2.634 1.55645 2.61993 1.48145 2.5965 1.41113C2.84493 1.51426 3.02775 1.75332 3.02775 2.03457Z" fill="#F96363"/>
<path d="M5.36173 2.03457C5.36173 2.4002 5.06642 2.69082 4.70548 2.69082C4.42423 2.69082 4.18048 2.5127 4.08673 2.25488C4.15704 2.27832 4.23204 2.29238 4.31173 2.29238C4.67267 2.29238 4.96798 2.00176 4.96798 1.63613C4.96798 1.55645 4.95392 1.48145 4.93048 1.41113C5.18361 1.51426 5.36173 1.75332 5.36173 2.03457Z" fill="#FDD267"/>
<path d="M7.70157 2.03457C7.70157 2.4002 7.40626 2.69082 7.04532 2.69082C6.76407 2.69082 6.52032 2.5127 6.42657 2.25488C6.49689 2.27832 6.57189 2.29238 6.64689 2.29238C7.00782 2.29238 7.30314 2.00176 7.30314 1.63613C7.30314 1.55645 7.28907 1.48145 7.26095 1.41113C7.51876 1.51426 7.70157 1.75332 7.70157 2.03457Z" fill="#50D27E"/>
<path d="M2.37189 2.88281C1.90782 2.88281 1.52814 2.50312 1.52814 2.03906C1.52814 1.575 1.90782 1.19531 2.37189 1.19531C2.83595 1.19531 3.21564 1.575 3.21564 2.03906C3.21564 2.50312 2.83595 2.88281 2.37189 2.88281ZM2.37189 1.57031C2.11407 1.57031 1.90314 1.78125 1.90314 2.03906C1.90314 2.29688 2.11407 2.50781 2.37189 2.50781C2.6297 2.50781 2.84064 2.29688 2.84064 2.03906C2.84064 1.78125 2.6297 1.57031 2.37189 1.57031Z" fill="#333333"/>
<path d="M4.71094 2.88281C4.24688 2.88281 3.86719 2.50312 3.86719 2.03906C3.86719 1.575 4.24688 1.19531 4.71094 1.19531C5.175 1.19531 5.55469 1.575 5.55469 2.03906C5.55469 2.50312 5.175 2.88281 4.71094 2.88281ZM4.71094 1.57031C4.45312 1.57031 4.24219 1.78125 4.24219 2.03906C4.24219 2.29688 4.45312 2.50781 4.71094 2.50781C4.96875 2.50781 5.17969 2.29688 5.17969 2.03906C5.17969 1.78125 4.96875 1.57031 4.71094 1.57031Z" fill="#333333"/>
<path d="M7.04572 2.88281C6.58165 2.88281 6.20197 2.50312 6.20197 2.03906C6.20197 1.575 6.58165 1.19531 7.04572 1.19531C7.50978 1.19531 7.88947 1.575 7.88947 2.03906C7.88947 2.50312 7.50978 2.88281 7.04572 2.88281ZM7.04572 1.57031C6.7879 1.57031 6.57697 1.78125 6.57697 2.03906C6.57697 2.29688 6.7879 2.50781 7.04572 2.50781C7.30353 2.50781 7.51447 2.29688 7.51447 2.03906C7.51447 1.78125 7.30353 1.57031 7.04572 1.57031Z" fill="#333333"/>
<path d="M22.2844 2.03418C22.2844 2.3998 21.9891 2.69043 21.6281 2.69043H10.7672C10.4063 2.69043 10.111 2.3998 10.111 2.03418C10.111 1.67324 10.4063 1.37793 10.7672 1.37793H21.6281C21.9891 1.37793 22.2844 1.67324 22.2844 2.03418Z" fill="white"/>
<path d="M22.2846 2.03379C22.2846 2.39941 21.9893 2.69004 21.6283 2.69004H10.7674C10.4158 2.69004 10.1299 2.41348 10.1111 2.0666C10.2049 2.11816 10.3127 2.14629 10.4252 2.14629H21.2861C21.6471 2.14629 21.9424 1.85566 21.9424 1.49004V1.46191C22.144 1.56973 22.2846 1.79004 22.2846 2.03379Z" fill="#EDEDED"/>
<path d="M21.6281 2.87793H10.7672C10.3031 2.87793 9.92346 2.49824 9.92346 2.03418C9.92346 1.57012 10.3031 1.19043 10.7672 1.19043H21.6281C22.0922 1.19043 22.4719 1.57012 22.4719 2.03418C22.4719 2.49824 22.0922 2.87793 21.6281 2.87793ZM10.7672 1.56543C10.5094 1.56543 10.2985 1.77637 10.2985 2.03418C10.2985 2.29199 10.5094 2.50293 10.7672 2.50293H21.6281C21.886 2.50293 22.0969 2.29199 22.0969 2.03418C22.0969 1.77637 21.886 1.56543 21.6281 1.56543H10.7672Z" fill="#333333"/>
<path d="M21.3562 5.77539C21.3562 5.77539 21.3562 7.74883 21.3562 10.3785H2.64374V5.77539H21.3562Z" fill="#FB8A8A"/>
<path d="M21.3562 5.77539C21.3562 5.77539 21.3562 6.15039 21.3562 6.79258H2.64374V5.77539H21.3562Z" fill="#FCB1B1"/>
<path d="M21.3562 9.36133H2.64374V10.3738H21.3562V9.36133Z" fill="#F96363"/>
<path d="M21.3562 10.5611H2.64374C2.54061 10.5611 2.45624 10.4768 2.45624 10.3736V5.77051C2.45624 5.66738 2.54061 5.58301 2.64374 5.58301H21.3562C21.4594 5.58301 21.5437 5.66738 21.5437 5.77051V10.3736C21.5437 10.4814 21.4594 10.5611 21.3562 10.5611ZM2.83124 10.1861H21.1687V5.95801H2.83124V10.1861Z" fill="#333333"/>
<path d="M21.3562 12.4502H2.64374C2.54061 12.4502 2.45624 12.3658 2.45624 12.2627C2.45624 12.1596 2.54061 12.0752 2.64374 12.0752H21.3562C21.4594 12.0752 21.5437 12.1596 21.5437 12.2627C21.5437 12.3658 21.4594 12.4502 21.3562 12.4502Z" fill="#333333"/>
<path d="M21.3562 22.1113H2.64374C2.54061 22.1113 2.45624 22.027 2.45624 21.9238C2.45624 21.8207 2.54061 21.7363 2.64374 21.7363H21.3562C21.4594 21.7363 21.5437 21.8207 21.5437 21.9238C21.5437 22.027 21.4594 22.1113 21.3562 22.1113Z" fill="#333333"/>
</g>
<path d="M6.09473 18.2104L5.28467 15.2061L4.46436 18.2104C4.40055 18.4383 4.34928 18.6024 4.31055 18.7026C4.27409 18.8006 4.20915 18.8895 4.11572 18.9692C4.0223 19.0467 3.89811 19.0854 3.74316 19.0854C3.61784 19.0854 3.51416 19.0615 3.43213 19.0137C3.35238 18.9681 3.28743 18.9032 3.2373 18.8188C3.18717 18.7323 3.14616 18.6309 3.11426 18.5146C3.08236 18.3962 3.05387 18.2868 3.02881 18.1865L2.19482 14.813C2.14469 14.617 2.11963 14.4678 2.11963 14.3652C2.11963 14.2354 2.1652 14.126 2.25635 14.0371C2.34749 13.9482 2.46029 13.9038 2.59473 13.9038C2.7793 13.9038 2.90348 13.9631 2.96729 14.0815C3.03109 14.2 3.08691 14.3721 3.13477 14.5977L3.79102 17.5234L4.52588 14.7856C4.58057 14.576 4.62956 14.4165 4.67285 14.3071C4.71615 14.1978 4.78678 14.1032 4.88477 14.0234C4.98275 13.9437 5.11605 13.9038 5.28467 13.9038C5.45557 13.9038 5.58773 13.946 5.68115 14.0303C5.77686 14.1123 5.84294 14.2023 5.87939 14.3003C5.91585 14.3983 5.96484 14.5601 6.02637 14.7856L6.76807 17.5234L7.42432 14.5977C7.45622 14.445 7.48584 14.3254 7.51318 14.2388C7.54281 14.1522 7.5918 14.0747 7.66016 14.0063C7.73079 13.938 7.83219 13.9038 7.96436 13.9038C8.09652 13.9038 8.20817 13.9482 8.29932 14.0371C8.39274 14.1237 8.43945 14.2331 8.43945 14.3652C8.43945 14.4587 8.41439 14.6079 8.36426 14.813L7.53027 18.1865C7.47331 18.4144 7.42546 18.5819 7.38672 18.689C7.35026 18.7938 7.28646 18.8861 7.19531 18.9658C7.10645 19.0456 6.97998 19.0854 6.81592 19.0854C6.66097 19.0854 6.53678 19.0467 6.44336 18.9692C6.34993 18.8918 6.28499 18.8052 6.24854 18.7095C6.21208 18.6115 6.16081 18.4451 6.09473 18.2104ZM12.6641 18.2104L11.854 15.2061L11.0337 18.2104C10.9699 18.4383 10.9186 18.6024 10.8799 18.7026C10.8434 18.8006 10.7785 18.8895 10.6851 18.9692C10.5916 19.0467 10.4674 19.0854 10.3125 19.0854C10.1872 19.0854 10.0835 19.0615 10.0015 19.0137C9.92171 18.9681 9.85677 18.9032 9.80664 18.8188C9.75651 18.7323 9.71549 18.6309 9.68359 18.5146C9.65169 18.3962 9.62321 18.2868 9.59814 18.1865L8.76416 14.813C8.71403 14.617 8.68896 14.4678 8.68896 14.3652C8.68896 14.2354 8.73454 14.126 8.82568 14.0371C8.91683 13.9482 9.02962 13.9038 9.16406 13.9038C9.34863 13.9038 9.47282 13.9631 9.53662 14.0815C9.60042 14.2 9.65625 14.3721 9.7041 14.5977L10.3604 17.5234L11.0952 14.7856C11.1499 14.576 11.1989 14.4165 11.2422 14.3071C11.2855 14.1978 11.3561 14.1032 11.4541 14.0234C11.5521 13.9437 11.6854 13.9038 11.854 13.9038C12.0249 13.9038 12.1571 13.946 12.2505 14.0303C12.3462 14.1123 12.4123 14.2023 12.4487 14.3003C12.4852 14.3983 12.5342 14.5601 12.5957 14.7856L13.3374 17.5234L13.9937 14.5977C14.0256 14.445 14.0552 14.3254 14.0825 14.2388C14.1121 14.1522 14.1611 14.0747 14.2295 14.0063C14.3001 13.938 14.4015 13.9038 14.5337 13.9038C14.6659 13.9038 14.7775 13.9482 14.8687 14.0371C14.9621 14.1237 15.0088 14.2331 15.0088 14.3652C15.0088 14.4587 14.9837 14.6079 14.9336 14.813L14.0996 18.1865C14.0426 18.4144 13.9948 18.5819 13.9561 18.689C13.9196 18.7938 13.8558 18.8861 13.7646 18.9658C13.6758 19.0456 13.5493 19.0854 13.3853 19.0854C13.2303 19.0854 13.1061 19.0467 13.0127 18.9692C12.9193 18.8918 12.8543 18.8052 12.8179 18.7095C12.7814 18.6115 12.7301 18.4451 12.6641 18.2104ZM19.2334 18.2104L18.4233 15.2061L17.603 18.2104C17.5392 18.4383 17.488 18.6024 17.4492 18.7026C17.4128 18.8006 17.3478 18.8895 17.2544 18.9692C17.161 19.0467 17.0368 19.0854 16.8818 19.0854C16.7565 19.0854 16.6528 19.0615 16.5708 19.0137C16.491 18.9681 16.4261 18.9032 16.376 18.8188C16.3258 18.7323 16.2848 18.6309 16.2529 18.5146C16.221 18.3962 16.1925 18.2868 16.1675 18.1865L15.3335 14.813C15.2834 14.617 15.2583 14.4678 15.2583 14.3652C15.2583 14.2354 15.3039 14.126 15.395 14.0371C15.4862 13.9482 15.599 13.9038 15.7334 13.9038C15.918 13.9038 16.0422 13.9631 16.106 14.0815C16.1698 14.2 16.2256 14.3721 16.2734 14.5977L16.9297 17.5234L17.6646 14.7856C17.7192 14.576 17.7682 14.4165 17.8115 14.3071C17.8548 14.1978 17.9255 14.1032 18.0234 14.0234C18.1214 13.9437 18.2547 13.9038 18.4233 13.9038C18.5942 13.9038 18.7264 13.946 18.8198 14.0303C18.9155 14.1123 18.9816 14.2023 19.0181 14.3003C19.0545 14.3983 19.1035 14.5601 19.165 14.7856L19.9067 17.5234L20.563 14.5977C20.5949 14.445 20.6245 14.3254 20.6519 14.2388C20.6815 14.1522 20.7305 14.0747 20.7988 14.0063C20.8695 13.938 20.9709 13.9038 21.103 13.9038C21.2352 13.9038 21.3468 13.9482 21.438 14.0371C21.5314 14.1237 21.5781 14.2331 21.5781 14.3652C21.5781 14.4587 21.5531 14.6079 21.5029 14.813L20.6689 18.1865C20.612 18.4144 20.5641 18.5819 20.5254 18.689C20.4889 18.7938 20.4251 18.8861 20.334 18.9658C20.2451 19.0456 20.1187 19.0854 19.9546 19.0854C19.7996 19.0854 19.6755 19.0467 19.582 18.9692C19.4886 18.8918 19.4237 18.8052 19.3872 18.7095C19.3507 18.6115 19.2995 18.4451 19.2334 18.2104Z" fill="black"/>
</g>
<defs>
<clipPath id="clip0_75_8382">
<rect width="24" height="24" fill="white"/>
</clipPath>
<clipPath id="clip1_75_8382">
<rect width="24" height="24" fill="white"/>
</clipPath>
</defs>
</svg>
